PathFileType  4	(X/Y/Z) C:\Users\antoi\Documents\MyRepositories\mobilecap\ResultsAnalysis
DataRate	CameraRate	NumFrames	NumMarkers	Units	OrigDataRate	OrigDataStartFrame	OrigNumFrames
100.0	100.0	5	51	mm	100.0	1247	1424
Frame#	Time	r_knee			r_shank_antsup			r_ankle			r_calc			r_5meta			r_toe			L_knee			L_shank_antsup			L_ankle			L_calc			L_5meta			L_toe			r_sh2			r_sh3			r_sh4			L_sh2			L_sh3			r_thigh1			r_thigh2			r_thigh3			r_thigh4			r_thigh5			L_thigh1			L_thigh2			L_thigh3			L_thigh4			r.ASIS			r.PSIS			L.ASIS			L.PSIS			C7			R_Shoulder			L_Shoulder			R_Sternum			L_Sternum			R_humerus			R_elbow_med			R_elbow_lat			R_forearm			R_wrist_radius			R_wrist_ulna			L_humerus			L_elbow_med			L_elbow_lat			L_forearm			L_wrist_radius			L_wrist_ulna			R_HJC			L_HJC			R_HJC_reg			L_HJC_reg			
		X1	Y1	Z1	X2	Y2	Z2	X3	Y3	Z3	X4	Y4	Z4	X5	Y5	Z5	X6	Y6	Z6	X7	Y7	Z7	X8	Y8	Z8	X9	Y9	Z9	X10	Y10	Z10	X11	Y11	Z11	X12	Y12	Z12	X13	Y13	Z13	X14	Y14	Z14	X15	Y15	Z15	X16	Y16	Z16	X17	Y17	Z17	X18	Y18	Z18	X19	Y19	Z19	X20	Y20	Z20	X21	Y21	Z21	X22	Y22	Z22	X23	Y23	Z23	X24	Y24	Z24	X25	Y25	Z25	X26	Y26	Z26	X27	Y27	Z27	X28	Y28	Z28	X29	Y29	Z29	X30	Y30	Z30	X31	Y31	Z31	X32	Y32	Z32	X33	Y33	Z33	X34	Y34	Z34	X35	Y35	Z35	X36	Y36	Z36	X37	Y37	Z37	X38	Y38	Z38	X39	Y39	Z39	X40	Y40	Z40	X41	Y41	Z41	X42	Y42	Z42	X43	Y43	Z43	X44	Y44	Z44	X45	Y45	Z45	X46	Y46	Z46	X47	Y47	Z47	X48	Y48	Z48	X49	Y49	Z49	X50	Y50	Z50	X51	Y51	Z51	

1247	12.46000000	-306.35560	502.19563	-470.43896	-264.37997	437.66595	-474.24701	-333.35666	98.70386	-428.83610	-397.87862	61.16015	-470.32701	-235.90110	45.55006	-377.85354	-182.72581	70.79469	-428.56647	-307.05260	497.62113	-872.56963	-267.28428	411.94699	-894.53425	-326.80955	99.17906	-904.93601	-388.65892	61.12129	-860.98311	-223.19449	42.82506	-959.08047	-178.23033	65.76821	-906.82586	-287.04330	329.43168	-435.41065	-341.74531	451.81204	-451.91292	-358.27455	340.58749	-431.36058	-355.68125	421.28489	-881.82850	-359.88471	300.94984	-905.68843	-290.41971	824.35603	-483.71010	-279.41315	713.07211	-474.21415	-333.39357	685.49141	-447.42423	-402.58933	811.64441	-474.08863	-386.20151	695.38557	-464.88224	-348.22332	767.33983	-889.55028	-306.50334	635.24969	-885.88309	-440.87907	737.08504	-824.08753	-397.09677	603.29794	-835.83239	-278.59857	965.90794	-552.58289	-466.31772	1020.25205	-621.18399	-295.87475	942.03658	-803.96859	-479.10874	1018.14058	-718.87243	-396.55631	1415.19612	-690.56383	-308.80431	1388.27610	-518.28624	-332.79017	1384.03455	-862.87036	-256.40400	1374.66476	-670.40360	-254.21972	1372.36427	-712.65775	-334.91455	1261.09420	-443.63012	-419.04472	1056.20150	-477.20798	-401.90151	1077.90801	-401.16768	-264.04794	1063.33007	-433.39237	-143.22612	1048.21760	-477.58107	-140.45368	1014.53763	-471.17242	-341.72567	1269.61642	-925.93105	-398.70153	1042.59271	-866.62819	-390.19948	1068.02326	-949.50716	-282.56145	1080.56767	-927.74574	-137.99998	1078.66884	-897.72053	-133.64881	1046.71075	-911.64959	-363.96041	893.63767	-565.75161	-380.34512	879.97895	-771.11763	-355.32237	890.47811	-576.36697	-377.00522	886.89879	-741.96543	
1248	12.47000000	-305.07692	502.05445	-470.17850	-263.25909	437.28300	-474.24048	-333.26349	98.70430	-428.77778	-397.90312	61.12091	-470.30190	-235.86247	45.60772	-377.87296	-182.75679	70.82191	-428.63256	-306.08806	497.38438	-872.83458	-266.32535	411.69649	-894.72585	-326.77574	99.21386	-904.96074	-388.66848	61.11376	-860.98799	-223.18344	42.85055	-958.99179	-178.21838	65.84947	-906.74705	-286.24359	329.28058	-435.42423	-340.46900	451.76568	-451.75389	-357.19779	340.57217	-431.10358	-354.86393	421.38967	-882.02800	-359.31517	300.98535	-905.77872	-290.80659	824.34822	-483.79365	-278.91726	712.94855	-474.26693	-332.72710	685.13414	-447.19826	-402.68030	811.11390	-473.34859	-385.66813	694.92352	-464.25868	-348.43557	766.76251	-889.54688	-306.32457	634.69602	-885.76218	-440.93528	736.27823	-824.22662	-396.61196	602.64648	-835.89599	-279.44056	965.68872	-552.39530	-467.17814	1019.74872	-621.11583	-296.47425	941.65179	-804.00781	-479.93976	1017.57166	-718.87235	-396.60224	1414.91787	-690.63842	-308.99543	1387.95366	-518.26022	-332.99790	1383.62568	-862.89156	-256.72285	1374.41003	-670.52906	-254.81195	1372.03137	-712.61230	-334.35712	1260.80751	-443.50352	-417.47338	1055.52559	-476.73119	-400.42628	1077.36633	-400.46727	-262.58733	1063.67488	-432.77308	-141.69919	1049.23199	-477.16276	-138.65578	1015.12950	-470.41875	-341.52275	1269.26346	-926.17677	-397.50670	1041.56680	-867.17557	-389.36617	1067.03967	-949.42714	-281.67943	1080.61827	-928.49243	-137.08553	1079.18018	-898.53835	-132.60297	1047.32980	-912.52322	-364.66563	893.27914	-565.65711	-380.93633	879.52520	-771.02590	-356.01766	890.07879	-576.20753	-377.65581	886.38750	-741.95890	
1249	12.48000000	-303.63020	501.82788	-469.93439	-261.93528	436.96757	-474.10314	-333.21235	98.62224	-428.80029	-397.93388	61.06949	-470.27821	-235.87278	45.64165	-377.94046	-182.75546	70.86323	-428.71697	-305.03545	497.19583	-873.10385	-265.34760	411.39067	-894.72462	-326.74982	99.23703	-904.98879	-388.68892	61.12699	-860.96204	-223.17262	42.87682	-958.93464	-178.20278	65.92219	-906.65720	-285.31177	329.02932	-435.38346	-338.92642	451.98897	-451.28495	-356.23947	340.56006	-431.14252	-353.92349	421.44507	-882.31259	-358.53039	301.07165	-906.04415	-291.05914	824.20336	-483.86871	-278.41445	712.86359	-474.31591	-332.09674	684.82479	-446.93842	-402.81109	810.45328	-472.77528	-385.15284	694.39538	-463.66635	-348.55773	766.35019	-889.73847	-305.79022	634.43194	-886.25922	-441.08735	735.42334	-824.49960	-396.14501	601.90371	-836.08492	-280.43851	965.18531	-552.33953	-468.12234	1019.28863	-621.05317	-297.13247	940.99810	-803.82906	-480.86155	1017.06467	-718.87924	-396.66283	1414.49579	-690.74127	-309.20953	1387.54542	-518.38230	-333.17225	1383.17937	-862.97692	-257.09128	1374.11282	-670.70379	-254.80572	1371.57526	-712.65938	-333.81051	1260.60365	-443.26419	-416.30071	1054.81805	-476.04049	-398.84350	1076.76813	-399.89579	-261.08297	1064.02926	-432.21098	-140.14031	1050.27300	-476.67042	-136.88818	1016.12576	-469.66347	-341.36291	1268.76986	-926.37522	-396.60998	1040.73011	-867.66703	-388.64999	1065.76889	-948.90405	-280.85970	1080.64636	-929.22385	-136.20369	1079.65375	-899.31323	-131.57140	1047.74834	-912.76665	-365.65109	892.79720	-565.52708	-381.76550	878.94722	-770.90174	-356.92733	889.62622	-576.12082	-378.50197	885.85961	-741.79232	
1250	12.49000000	-302.03213	501.65760	-469.62583	-260.42882	436.73650	-473.79031	-333.13679	98.54714	-428.79981	-397.93820	61.09590	-470.23597	-235.88061	45.65995	-377.99950	-182.74337	70.91074	-428.80079	-303.93479	497.07466	-873.40996	-264.26373	411.07430	-894.80301	-326.70793	99.24561	-905.01458	-388.71417	61.15234	-860.93082	-223.15172	42.90068	-958.89401	-178.18664	65.96174	-906.59102	-284.14206	328.68163	-435.29338	-337.30686	452.15623	-450.85802	-355.28915	340.60811	-431.26360	-352.80829	421.53532	-882.83367	-357.58218	301.22168	-906.41515	-291.16914	823.83680	-484.12917	-278.03866	712.88878	-474.31030	-331.47833	684.58174	-446.62505	-403.07634	809.57852	-472.46811	-384.66795	693.67498	-463.22025	-348.61491	766.01643	-890.15893	-305.07547	634.35972	-887.03989	-441.31760	734.51297	-825.09111	-395.68921	601.22689	-836.50848	-281.56190	964.47545	-552.22129	-469.14172	1018.78585	-621.07125	-297.82760	940.18175	-803.43528	-481.66931	1016.63795	-718.86827	-396.78537	1413.89588	-690.82397	-309.44406	1387.07996	-518.50134	-333.34023	1382.66428	-863.07397	-257.43583	1373.72181	-670.84375	-254.58221	1371.10697	-712.70416	-333.30912	1260.39779	-443.09559	-415.53854	1054.17138	-474.92325	-397.26013	1076.18982	-399.32248	-259.57641	1064.37456	-431.63983	-138.56091	1051.29109	-476.08794	-135.12712	1017.28041	-469.02879	-341.19146	1268.20947	-926.46883	-395.73064	1040.02338	-868.35264	-387.75090	1065.10067	-949.20525	-280.09040	1080.57012	-929.85107	-135.36604	1080.12829	-900.09535	-130.54027	1048.02921	-912.61541	-366.86176	892.20197	-565.34125	-382.67746	878.29676	-770.73527	-358.09981	888.92606	-576.15006	-379.30305	885.29058	-741.67814	
1251	12.50000000	-300.29568	501.51561	-469.29816	-258.84036	436.46276	-473.44637	-333.07294	98.50830	-428.78425	-397.93320	61.17485	-470.19684	-235.86256	45.68466	-378.01956	-182.77121	70.95609	-428.87024	-302.70988	496.87966	-873.76257	-263.07662	410.81284	-895.22652	-326.64031	99.23314	-905.04915	-388.72269	61.14918	-860.96711	-223.12920	42.95907	-958.89604	-178.17889	65.96784	-906.56033	-282.96413	328.32500	-435.21095	-335.74638	452.01997	-450.69333	-354.24196	340.65564	-431.21469	-351.46492	421.57440	-883.41680	-356.67130	301.29845	-906.76468	-291.60623	823.57974	-484.46388	-277.75918	713.00896	-474.32791	-330.83310	684.28765	-446.33359	-403.51020	808.52510	-472.28086	-384.16648	692.86614	-462.82487	-348.59186	765.69769	-890.67678	-304.41890	634.25545	-887.46651	-441.46107	733.62933	-825.98518	-395.09232	600.82929	-837.50026	-282.83507	963.61357	-551.98575	-470.24300	1018.28865	-621.16007	-298.55344	939.36904	-803.28393	-482.34942	1016.21093	-719.01716	-396.83199	1413.24575	-690.93608	-309.62240	1386.66801	-518.52604	-333.48232	1382.11582	-863.19812	-257.65929	1373.22316	-670.96733	-254.82649	1370.68241	-712.62421	-332.77633	1260.06381	-443.06379	-414.10421	1053.96791	-473.68774	-395.74222	1075.61036	-398.67000	-258.09467	1064.68338	-431.01660	-137.00067	1052.21039	-475.52349	-133.34366	1018.29137	-468.51205	-340.99940	1267.71744	-926.61293	-394.79479	1039.31874	-869.21449	-386.68628	1065.04237	-950.52801	-279.31361	1080.37134	-930.39896	-134.55694	1080.59202	-900.88741	-129.56294	1048.38147	-912.93426	-368.23172	891.49055	-565.29597	-383.62053	877.67474	-770.72845	-359.62418	888.10646	-576.27498	-380.11691	884.58967	-741.92404	
